%TF.GenerationSoftware,Altium Limited,Altium Designer,22.1.2 (22)*%
G04 Layer_Color=128*
%FSLAX26Y26*%
%MOIN*%
%TF.SameCoordinates,B77A79C4-BEF8-4042-A3AD-6B24AD407A23*%
%TF.FilePolarity,Positive*%
%TF.FileFunction,Drillmap*%
%TF.Part,Single*%
G01*
G75*
%TA.AperFunction,NonConductor*%
%ADD18C,0.005000*%
D18*
X1490945Y1400000D02*
X1609055D01*
X1550000Y1340945D02*
Y1459055D01*
X1490945Y1900000D02*
X1609055D01*
X1550000Y1840945D02*
Y1959055D01*
X1828347Y1750000D02*
X1871653D01*
X1850000Y1728347D02*
Y1771653D01*
X1828347Y1550000D02*
X1871653D01*
X1850000Y1528347D02*
Y1571653D01*
X3862402Y2265156D02*
X3876182D01*
X3869292Y2258266D02*
Y2272046D01*
X3862402Y1983660D02*
X3876182D01*
X3869292Y1976770D02*
Y1990550D01*
X3892126Y2098818D02*
X3907874D01*
X3900000Y2090944D02*
Y2106692D01*
X3892126Y2150000D02*
X3907874D01*
X3900000Y2142126D02*
Y2157874D01*
X3852756Y2175590D02*
X3868504D01*
X3860630Y2167716D02*
Y2183464D01*
X3852756Y2124408D02*
X3868504D01*
X3860630Y2116534D02*
Y2132282D01*
X3852756Y2073228D02*
X3868504D01*
X3860630Y2065354D02*
Y2081102D01*
X3904331Y1600000D02*
X3943701D01*
X3924016Y1580315D02*
Y1619685D01*
X3707481Y1600000D02*
X3746851D01*
X3727166Y1580315D02*
Y1619685D01*
X1037008Y2800000D02*
X1162992D01*
X1100000Y2737008D02*
Y2862992D01*
X3837008Y1100000D02*
X3962992D01*
X3900000Y1037008D02*
Y1162992D01*
X3837008Y2800000D02*
X3962992D01*
X3900000Y2737008D02*
Y2862992D01*
X1037008Y1100000D02*
X1162992D01*
X1100000Y1037008D02*
Y1162992D01*
X3594000Y1882000D02*
X3622000D01*
X3608000Y1868000D02*
Y1896000D01*
X3674667Y1882000D02*
X3702667D01*
X3688667Y1868000D02*
Y1896000D01*
X3755333Y1882000D02*
X3783333D01*
X3769333Y1868000D02*
Y1896000D01*
X3836000Y1882000D02*
X3864000D01*
X3850000Y1868000D02*
Y1896000D01*
X2422000Y2612000D02*
X2450000D01*
X2436000Y2598000D02*
Y2626000D01*
X2540000Y2654000D02*
X2568000D01*
X2554000Y2640000D02*
Y2668000D01*
%TF.MD5,be27772b4b74009ec3e4697b43954e9e*%
M02*
